<?xml version="1.0" encoding="utf-8"?>
<!-- Generator: Adobe Illustrator 22.0.1, SVG Export Plug-In . SVG Version: 6.00 Build 0)  -->
<svg version="1.1" id="Слой_1" xmlns="http://www.w3.org/2000/svg" xmlns:xlink="http://www.w3.org/1999/xlink" x="0px" y="0px"
	 viewBox="0 0 1500 475.5" style="enable-background:new 0 0 1500 475.5;" xml:space="preserve">
<style type="text/css">
	.st0{fill-rule:evenodd;clip-rule:evenodd;fill:#F59E2A;}
	.st1{fill-rule:evenodd;clip-rule:evenodd;fill:#231F20;}
</style>
<g>
	<path class="st0" d="M240.8,45.1c-105.9,0-192.1,86.2-192.1,192.1s86.2,192.1,192.1,192.1c105.9,0,192.1-86.2,192.1-192.1
		S346.8,45.1,240.8,45.1L240.8,45.1L240.8,45.1z M240.8,458.6c-122,0-221.3-99.2-221.4-221.2V237c0.1-122,99.4-221.2,221.4-221.2
		c122.1,0,221.4,99.3,221.4,221.4C462.2,359.2,362.9,458.6,240.8,458.6L240.8,458.6z"/>
	<path class="st0" d="M333.7,347.5c-5.3-14.1-11.7-25.3-19.2-33.6c-7.5-8.3-16.1-14.1-26-17.3c9.7-2.2,18.5-5.5,26.4-9.9
		c7.8-4.4,14.5-9.8,19.9-16.2c5.4-6.4,9.6-13.8,12.5-22c2.9-8.3,4.3-17.3,4.3-27c0-5.7-0.6-11.3-1.7-16.8
		c-1.1-5.6-2.7-10.9-4.9-16.1c-2.2-5.2-4.8-10.1-8-14.7c-3.2-4.6-7-8.8-11.3-12.5c-4.9-4.2-10.2-7.5-15.7-10
		c-5.5-2.5-11.4-4.3-17.6-5.6c-6.2-1.2-12.7-2-19.4-2.3c-6.8-0.3-13.9-0.5-21.5-0.5h-83.8v31.1h85.5c20.2,0,35.3,3.9,45.1,11.6
		c9.9,7.7,14.8,19.6,14.8,35.8c0,9-1.2,16.6-3.7,22.8c-2.5,6.2-6.3,11.3-11.6,15.1c-5.3,3.8-12.1,6.6-20.4,8.3
		c-8.3,1.7-18.2,2.6-29.8,2.6h-79.9v33.5h8.8c0.2,0,0.4,0,0.6,0h56.1c7.3,0,14.1,1.1,20.5,3.3c6.4,2.2,12.2,5.3,17.5,9.3
		c5.2,3.9,9.9,8.7,13.9,14.2c4,5.5,7.2,11.5,9.5,18l26.5,75.3h40.3L333.7,347.5L333.7,347.5z"/>
	<polygon class="st0" points="199.6,437 166.3,437 166.3,271.5 199.6,271.5 199.6,437 	"/>
	<path class="st1" d="M562.2,145.9c-1.6,0-2.5,0.7-2.5,2.2v55.3c0,1.6,0.7,2.5,2.2,2.5h25.4c12.2,0,18.1-3.8,23.9-15
		c2.9-5.6,4.4-10.6,4.4-15c0-3.4-0.4-7-1.2-10.6c-0.8-3.6-2.4-6.9-4.6-9.7c-2.3-2.8-5.4-5.1-9.3-7c-3.9-1.8-9-2.7-15.1-2.7H562.2
		L562.2,145.9z M638.7,173.4c0,4.7-0.7,9.4-2.2,13.9c-1.5,4.5-3.4,8.9-5.9,12.9c-2.5,4.1-5.2,7.8-8.2,11.2
		c-10.9,12.3-19.6,14-36.4,13.8h-24c-1.5,0-2.2,0.8-2.2,2.5v63.5c0,2.2-1.1,3.3-3.3,3.3l-16.3,0c-2.2,0-3.3-1-3.3-3V129.3
		c0-2,1.1-3,3.3-3h48c17.1,0,29.7,4.3,38,12.8C634.6,147.6,638.7,159.1,638.7,173.4L638.7,173.4z"/>
	<path class="st1" d="M1036.9,182.8l-12.3,50.2c-0.2,0.9-0.2,1.5-0.1,1.8c0.1,0.3,0.6,0.4,1.5,0.4h37.6c0.9,0,1.5-0.1,1.6-0.4
		c0.2-0.3,0.2-0.9,0-1.8l-12-49.1l-7.6-34.3c-0.7-1.3-0.5-0.9-0.7-0.8c-0.3,0-0.5,0.2-0.7,0.5L1036.9,182.8L1036.9,182.8z
		 M1083.3,292.3c-2.4,0-3.6-0.6-3.8-1.9l-9-35.4c-0.4-0.7-0.7-1.1-1.1-1.1h-48.2c-0.7,0-1.1,0.1-1.2,0.3c-0.1,0.2-0.2,0.4-0.4,0.5
		l-8.7,35.7c-0.2,1.3-1.4,1.9-3.5,1.9l-14.7,0c-1.5,0-2.5-0.3-3.1-0.8c-0.6-0.5-0.8-1.6-0.4-3.3l40.3-160.8c0.2-0.9,0.6-1.7,1.2-2.3
		c0.6-0.6,1.7-1,3.1-1h23.2c2.2,0,3.5,0.9,4.1,2.7l41.4,160.8c0.4,0.9,0.4,1.9,0.3,3c-0.2,1.1-1.1,1.6-2.7,1.6L1083.3,292.3
		L1083.3,292.3z"/>
	<path class="st1" d="M1355.3,145.9h-36c-1.6,0-2.5,0.7-2.5,2.2v143.1c0,2.2-1,3.3-3,3.3l-16.6,0c-2.2,0-3.3-1-3.3-3V148.3
		c0-1.6-0.7-2.5-2.2-2.5h-35.4c-2.2,0-3.3-1-3.3-3v-13.6c0-2,1.1-3,3.3-3h98.9c2.2,0,3.3,0.9,3.3,2.7v13.9
		C1358.5,144.9,1357.4,145.9,1355.3,145.9L1355.3,145.9z"/>
	<path class="st1" d="M1456.7,171c0-7.8-2.6-14.3-7.9-19.4c-5.3-5.1-12.3-7.6-21-7.6c-8.9,0-16,2.6-21.3,7.8
		c-5.3,5.2-7.9,11.6-7.9,19.2v77.9c0,8.2,2.5,14.8,7.5,19.8c5,5,12.1,7.5,21.4,7.5c9.1,0,16.2-2.5,21.4-7.5c5.2-5,7.8-11.6,7.8-19.8
		V171L1456.7,171z M1479.6,249.4c0,7.5-1.3,14-4,19.8c-2.6,5.7-6.3,10.6-10.9,14.6c-4.6,4-10.1,7-16.3,9.1
		c-6.3,2.1-13.1,3.1-20.6,3.1c-7.5,0-14.3-1-20.6-3c-6.3-2-11.8-4.9-16.5-8.9c-4.7-3.9-8.4-8.8-11-14.6c-2.6-5.8-4-12.5-4-20.2v-79
		c0-7.3,1.4-13.8,4.1-19.5l11-14.6c4.6-4,10.1-7,16.3-9.1c6.3-2.1,13-3.1,20.3-3.1c7.1,0,13.8,1,20,3c6.3,2,11.8,5,16.6,8.9
		c4.8,3.9,8.6,8.8,11.3,14.6c2.7,5.8,4.1,12.4,4.1,19.9V249.4L1479.6,249.4z"/>
	<path class="st1" d="M686,294.3h-16.9c-2.2,0-3.3-1-3.3-3V129.2c0-2,1.1-3,3.3-3H686c2.2,0,3.3,0.9,3.3,2.7v162.2
		C689.3,293.3,688.2,294.3,686,294.3L686,294.3z"/>
	<path class="st1" d="M777.8,294.3h-16.9c-2.2,0-3.3-1-3.3-3V129.2c0-2,1.1-3,3.3-3h16.9c2.2,0,3.3,0.9,3.3,2.7v162.2
		C781.1,293.3,780,294.3,777.8,294.3L777.8,294.3z"/>
	<path class="st1" d="M1143.6,292.7l-16.3-0.1c-2.2,0-3.3-1-3.3-3V127.4c0-2,1.1-3,3.3-3h16.9c0.1,0,0.3,0,0.4,0l35.7,0
		c7.3,0,13.8,1.2,19.5,3.7l14.6,10.1c4,4.2,7,9.2,9.1,14.9c2.1,5.7,3.1,11.9,3.1,18.6c0,6.5-1,12.6-3,18.3c-2,5.7-5,10.8-8.9,15.2
		c-0.7,0.8-1.4,1.5-2.1,2.2l6.5,4.5c4,4.2,7,9.2,9.1,14.9c2.1,5.7,3.1,11.9,3.1,18.5c0,6.4-1,12.5-3,18.2c-2,5.7-5,10.7-8.9,15.1
		c-3.9,4.4-8.8,7.8-14.6,10.3c-5.8,2.5-12.4,3.7-19.9,3.7L1143.6,292.7L1143.6,292.7L1143.6,292.7z M1147.4,145.3v52.8l34.2,0
		c6-0.7,11.1-3.1,15.2-7c5.1-4.8,7.6-11.2,7.6-19.2c0-8.1-2.6-14.6-7.8-19.4c-5.2-4.8-11.6-7.2-19.2-7.2L1147.4,145.3L1147.4,145.3z
		 M1184.9,219.1l-37.5,0.3v52.5l35.7,0c5.8,0.7,13.6-2.2,19.3-7.2c5.1-4.8,7.6-11.2,7.6-19.1c0-8.1-2.6-14.6-7.8-19.4
		C1197.5,221.8,1191.7,219.4,1184.9,219.1L1184.9,219.1z"/>
	<path class="st1" d="M686,294.3h-16.9c-2.2,0-2.7-1-1.6-3l90.6-163.9c1.1-2,3.3,0.2,5.5,0.2h16.3c-1.2,2.1-1.5,1.9,1.2,1.7
		l-90,161.7C689.9,293.2,688.2,294.3,686,294.3L686,294.3z"/>
	<path class="st1" d="M855.2,184.5l-12.3,50.2c-0.2,0.9-0.2,1.5-0.1,1.8c0.1,0.3,0.6,0.4,1.5,0.4h37.6c0.9,0,1.5-0.1,1.6-0.4
		c0.2-0.3,0.2-0.9,0-1.8l-12-49.1l-7.6-34.3c-0.8-1.3-0.5-0.9-0.7-0.8c-0.3,0-0.5,0.2-0.7,0.5L855.2,184.5L855.2,184.5z
		 M901.5,294.1c-2.4,0-3.6-0.6-3.8-1.9l-9-35.4c-0.4-0.7-0.7-1.1-1.1-1.1h-48.2c-0.7,0-1.1,0.1-1.2,0.3c-0.1,0.2-0.2,0.4-0.4,0.5
		l-8.7,35.7c-0.2,1.3-1.4,1.9-3.5,1.9l-14.7,0c-1.5,0-2.5-0.3-3.1-0.8c-0.6-0.5-0.8-1.6-0.4-3.3l40.3-160.8c0.2-0.9,0.6-1.7,1.2-2.3
		c0.6-0.6,1.7-1,3.1-1H875c2.2,0,3.5,0.9,4.1,2.7l41.4,160.8c0.4,0.9,0.4,1.9,0.3,3c-0.2,1.1-1.1,1.6-2.7,1.6L901.5,294.1
		L901.5,294.1z"/>
</g>
</svg>
